<svg id="Layer_1" data-name="Layer 1" xmlns="http://www.w3.org/2000/svg" width="800" height="566" viewBox="0 0 800 566"><defs><style>.cls-1{fill:#3681fc;}.cls-2{fill:none;}</style></defs><title>gitbook-logo-freelogovectors.net_</title><path class="cls-1" d="M361.38,574.71c12.49,0,20,10,20,20,0,12.49-10,20-20,20-12.49,0-20-10-20-20S348.89,574.71,361.38,574.71ZM688.57,447.33c-12.49,0-20-10-20-20s10-20,20-20c12.48,0,20,10,20,20S698.56,447.33,688.57,447.33Zm0-84.91c-35,0-64.94,30-64.94,64.93,0,7.5,0,15,2.5,20L413.83,559.72c-12.49-17.48-32.47-27.47-52.45-27.47-25,0-47.45,15-57.44,35L114.12,467.31c-20-10-35-44.95-32.47-74.92,0-15,7.5-27.48,15-32.47a21.31,21.31,0,0,1,17.48,0h2.5C166.57,387.39,333.91,472.31,338.9,477.3c10,5,17.49,7.5,35-2.49L716,297.48c5-2.5,10-7.49,10-15,0-10-10-15-10-15-20-10-49.95-22.48-77.43-37.47-62.44-30-132.37-62.44-164.84-77.42-27.47-15-47.45-2.5-52.45,0l-7.49,2.5C274,225.05,86.65,317.46,76.66,322.45c-20,12.49-30,35-32.47,62.44-2.5,45,20,92.41,55,109.9l202.3,104.9c5,32.46,32.47,54.94,62.44,54.94,35,0,64.94-27.47,64.94-62.44L651.1,472.31c12.49,10,25,12.49,40,12.49,35,0,64.94-30,64.94-64.94-5-30-32.47-57.44-67.43-57.44" transform="translate(0 -117)"/><rect class="cls-2" width="800" height="566"/></svg>