<?xml version="1.0" encoding="UTF-8"?>
<svg xmlns="http://www.w3.org/2000/svg" xmlns:xlink="http://www.w3.org/1999/xlink" viewBox="0 0 48 48" width="48px" height="48px">
<g id="surface10873319">
<path style=" stroke:none;fill-rule:nonzero;fill:rgb(100%,100%,100%);fill-opacity:1;" d="M 26 24 C 26 30.628906 20.628906 36 14 36 C 7.371094 36 2 30.628906 2 24 C 2 17.371094 7.371094 12 14 12 C 20.628906 12 26 17.371094 26 24 Z M 26 24 "/>
<path style=" stroke:none;fill-rule:nonzero;fill:rgb(100%,100%,100%);fill-opacity:1;" d="M 40 24 C 40 30.074219 37.3125 35 34 35 C 30.6875 35 28 30.074219 28 24 C 28 17.925781 30.6875 13 34 13 C 37.3125 13 40 17.925781 40 24 Z M 40 24 "/>
<path style=" stroke:none;fill-rule:nonzero;fill:rgb(100%,100%,100%);fill-opacity:1;" d="M 46 24 C 46 29.523438 45.105469 34 44 34 C 42.894531 34 42 29.523438 42 24 C 42 18.476562 42.894531 14 44 14 C 45.105469 14 46 18.476562 46 24 Z M 46 24 "/>
</g>
</svg>
