<?xml version="1.0" encoding="UTF-8" standalone="no"?>
<svg
   xmlns:dc="http://purl.org/dc/elements/1.1/"
   xmlns:cc="http://creativecommons.org/ns#"
   xmlns:rdf="http://www.w3.org/1999/02/22-rdf-syntax-ns#"
   xmlns:svg="http://www.w3.org/2000/svg"
   xmlns="http://www.w3.org/2000/svg"
   viewBox="0 0 120 85.333336"
   height="85.333336"
   width="120"
   xml:space="preserve"
   id="svg2"
   version="1.1"><metadata
     id="metadata8"><rdf:RDF><cc:Work
         rdf:about=""><dc:format>image/svg+xml</dc:format><dc:type
           rdf:resource="http://purl.org/dc/dcmitype/StillImage" /></cc:Work></rdf:RDF></metadata><defs
     id="defs6"><linearGradient
       id="linearGradient28"
       spreadMethod="pad"
       gradientTransform="matrix(0,-56.856361,-56.856361,0,44.498596,60.428162)"
       gradientUnits="userSpaceOnUse"
       y2="0"
       x2="1"
       y1="0"
       x1="0"><stop
         id="stop24"
         offset="0"
         style="stop-opacity:1;stop-color:#ee3338" /><stop
         id="stop26"
         offset="1"
         style="stop-opacity:1;stop-color:#c1343e" /></linearGradient><clipPath
       id="clipPath38"
       clipPathUnits="userSpaceOnUse"><path
         id="path36"
         d="M 0,64 H 90 V 0 H 0 Z" /></clipPath></defs><g
     transform="matrix(1.3333333,0,0,-1.3333333,0,85.333333)"
     id="g10"><g
       id="g12"><g
         id="g14"><g
           id="g20"><g
             id="g22"><path
               id="path30"
               style="fill:url(#linearGradient28);stroke:none"
               d="M 24.939,60.428 C 3.53,60.428 3.53,54.329 3.53,39.329 v 0 -14.658 C 3.53,10.406 6.562,3.572 24.939,3.572 v 0 h 39.119 c 16.599,0 21.41,3.994 21.41,21.099 v 0 14.658 c 0,15.789 -0.809,21.099 -21.41,21.099 v 0 z" /></g></g></g></g><g
       id="g32"><g
         clip-path="url(#clipPath38)"
         id="g34"><g
           transform="translate(36.1279,43.869)"
           id="g40"><path
             id="path42"
             style="fill:#ffffff;fill-opacity:1;fill-rule:nonzero;stroke:none"
             d="M 0,0 22.085,-11.468 0,-23.011 Z" /></g><g
           transform="translate(55.5121,30.9827)"
           id="g44"><path
             id="path46"
             style="fill:#e8e0e1;fill-opacity:1;fill-rule:nonzero;stroke:none"
             d="M 0,0 -19.384,12.889 2.701,1.42 Z" /></g></g></g></g></svg>